HIERARCHY
ROOT Hips
{
	OFFSET 0.00000 0.00000 0.00000
	CHANNELS 6 Xposition Yposition Zposition Zrotation Yrotation Xrotation 
	JOINT LHipJoint
	{
		OFFSET 0 0 0
		CHANNELS 3 Zrotation Yrotation Xrotation
		JOINT LeftHip
		{
			OFFSET 1.41496 -1.84582 0.78394
			CHANNELS 3 Zrotation Yrotation Xrotation
			JOINT LeftKnee
			{
				OFFSET 2.58040 -7.08960 0.00000
				CHANNELS 3 Zrotation Yrotation Xrotation
				JOINT LeftAnkle
				{
					OFFSET 2.64719 -7.27309 0.00000
					CHANNELS 3 Zrotation Yrotation Xrotation
					JOINT LeftToe
					{
						OFFSET 0.20718 -0.56921 2.20259
						CHANNELS 3 Zrotation Yrotation Xrotation
						End Site
						{
							OFFSET 0.00000 -0.00000 1.14243
						}
					}
				}
			}
		}
	}
	JOINT RHipJoint
	{
		OFFSET 0 0 0
		CHANNELS 3 Zrotation Yrotation Xrotation
		JOINT RightHip
		{
			OFFSET -1.40551 -1.84582 0.78394
			CHANNELS 3 Zrotation Yrotation Xrotation
			JOINT RightKnee
			{
				OFFSET -2.56572 -7.04926 0.00000
				CHANNELS 3 Zrotation Yrotation Xrotation
				JOINT RightAnkle
				{
					OFFSET -2.57974 -7.08778 0.00000
					CHANNELS 3 Zrotation Yrotation Xrotation
					JOINT RightToe
					{
						OFFSET -0.26704 -0.73369 2.20815
						CHANNELS 3 Zrotation Yrotation Xrotation
						End Site
						{
							OFFSET -0.00000 -0.00000 1.16246
						}
					}
				}
			}
		}
	}
	JOINT lowerback
	{
		OFFSET 0 0 0
		CHANNELS 3 Zrotation Yrotation Xrotation
		JOINT Chest
		{
			OFFSET -0.04690 2.05196 -0.07017
			CHANNELS 3 Zrotation Yrotation Xrotation
			JOINT Chest2
			{
				OFFSET 0.04085 2.05260 0.00800
				CHANNELS 3 Zrotation Yrotation Xrotation
				JOINT lowerneck
				{
					OFFSET 0 0 0
					CHANNELS 3 Zrotation Yrotation Xrotation
					JOINT Neck
					{
						OFFSET -0.03582 1.80995 0.19301
						CHANNELS 3 Zrotation Yrotation Xrotation
						JOINT Head
						{
							OFFSET 0.00952 1.80195 -0.36389
							CHANNELS 3 Zrotation Yrotation Xrotation
							End Site
							{
								OFFSET 0.00392 1.85062 -0.14494
							}
						}
					}
				}
				JOINT LeftCollar
				{
					OFFSET 0 0 0
					CHANNELS 3 Zrotation Yrotation Xrotation
					JOINT LeftShoulder
					{
						OFFSET 3.55224 1.39726 -0.13667
CHANNELS 3 Zrotation Xrotation Yrotation
						JOINT LeftElbow
						{
OFFSET 0 -5.145070 -0.000000
CHANNELS 3 Zrotation Xrotation Yrotation
							JOINT LeftWrist
							{
OFFSET 0 -3.506460 0.000000
CHANNELS 3 Zrotation Xrotation Yrotation
								JOINT lhand
								{
									OFFSET 0 0 0
CHANNELS 3 Zrotation Xrotation Yrotation
									JOINT LFingers
									{
OFFSET 0 -0.629970 0.000000
CHANNELS 3 Zrotation Xrotation Yrotation
										End Site
										{
OFFSET 0 -0.507900 0.000000
										}
									}
								}
								JOINT LThumb
								{
OFFSET 0 0.000000 0.000000
CHANNELS 3 Zrotation Xrotation Yrotation
									End Site
									{
OFFSET 0 -0.515650 0.515650
									}
								}
							}
						}
					}
				}
				JOINT RightCollar
				{
					OFFSET 0 0 0
					CHANNELS 3 Zrotation Yrotation Xrotation
					JOINT RightShoulder
					{
						OFFSET -3.06467 1.61290 -0.28813
CHANNELS 3 Zrotation Xrotation Yrotation
						JOINT RightElbow
						{
OFFSET 0 -5.232000 -0.000000
CHANNELS 3 Zrotation Xrotation Yrotation
							JOINT RightWrist
							{
OFFSET 0 -3.656410 0.000000
CHANNELS 3 Zrotation Xrotation Yrotation
								JOINT rhand
								{
									OFFSET 0 0 0
CHANNELS 3 Zrotation Xrotation Yrotation
									JOINT RFingers
									{
OFFSET 0 -0.656810 0.000000
CHANNELS 3 Zrotation Xrotation Yrotation
										End Site
										{
OFFSET 0 -0.529530 0.000000
										}
									}
								}
								JOINT RThumb
								{
OFFSET 0 0.000000 0.000000
CHANNELS 3 Zrotation Xrotation Yrotation
									End Site
									{
OFFSET 0 -0.537620 0.537620
									}
								}
							}
						}
					}
				}
			}
		}
	}
}
MOTION
Frames: 6
Frame Time: 0.008333333333333333
-1.577200 15.090200 40.228000 -175.899000 2.381900 -158.094000 0.000000 0.000000 0.000000 -2.711700 -12.734400 -82.587800 13.153000 18.836700 69.599900 -0.195800 -11.430200 -4.723500 1.063500 -6.556600 -18.408200 0.000000 0.000000 0.000000 24.349000 -1.831500 20.042300 -0.424900 -4.183300 11.592900 -4.220600 -17.998900 37.652000 -1.688300 8.184300 -23.275200 5.712900 0.996500 15.709800 1.444700 2.706300 -2.223700 -2.332700 1.010100 -11.122400 -2.121400 -2.287000 -18.972000 0.811100 -2.942600 3.313500 0.324100 -1.571200 4.032700 -0.000000 -0.000000 0.000000 36.128000 57.132700 -61.198400 122.337600 -55.654200 87.596600 18.072600 -13.655300 14.037000 0.000000 0.000000 0.000000 -7.125000 0.000000 0.000000 -6.394600 15.307900 -4.508100 -0.000000 -0.000000 0.000000 -21.052600 8.268300 48.813600 -135.745300 -50.398100 -98.337000 -19.018000 -7.129700 -5.027500 0.000000 0.000000 0.000000 7.125000 0.000000 -0.000000 5.721400 24.664200 2.825300
-1.567253 15.100147 39.878734 -176.180402 1.306812 -158.751042 0.000000 0.000000 0.000000 -3.794772 -13.187523 -80.719550 13.389051 18.917260 70.328732 -0.184348 -10.985912 -4.465591 1.175341 -6.876613 -19.352076 0.000000 0.000000 0.000000 24.704090 -2.480950 17.922751 -0.927367 -5.980676 16.772535 -3.633516 -17.000969 34.797860 -2.116490 9.075429 -26.052248 5.916033 0.604304 16.100557 1.374284 2.238256 -1.976459 -2.418168 0.779677 -11.100215 -2.095943 -2.365465 -19.254449 0.968162 -3.062883 3.436139 0.354138 -1.620282 4.117382 0.000000 0.000000 0.000000 34.398815 56.171024 -59.632363 121.199491 -55.977551 86.654164 18.908299 -13.937160 13.875619 0.000000 0.000000 0.000000 -7.125000 0.000000 0.000000 -5.818380 15.396902 -4.087109 0.000000 0.000000 0.000000 -20.400139 9.226639 48.505366 -133.948186 -51.257882 -96.939085 -18.556108 -6.476454 -4.547415 0.000000 0.000000 0.000000 7.125000 0.000000 0.000000 6.082315 25.180802 2.929812
-1.554063 15.115407 39.541389 -176.135043 0.970304 -158.751472 0.000000 0.000000 0.000000 -4.624773 -12.931994 -79.480826 13.574636 18.979628 70.900855 -0.169961 -10.601509 -4.344966 0.883456 -5.493515 -15.437370 0.000000 0.000000 0.000000 24.964118 -2.340862 15.241346 -1.520542 -7.685489 21.815691 -3.088467 -14.940909 31.919785 -2.349981 9.559898 -27.563020 5.901768 0.529356 16.061860 1.355909 2.129618 -1.988186 -2.402550 0.727738 -11.098939 -2.118512 -2.412150 -19.247230 1.147739 -3.131897 3.460348 0.407556 -1.642092 4.128281 0.000000 0.000000 0.000000 32.620061 55.274854 -58.130598 120.070215 -56.287529 85.716577 19.753172 -14.389351 13.639991 0.000000 0.000000 0.000000 -7.125000 0.000000 0.000000 -5.231844 15.562745 -3.653733 0.000000 0.000000 0.000000 -19.727171 10.347369 48.232372 -131.893122 -52.180021 -95.323586 -18.210311 -5.679624 -4.116776 0.000000 0.000000 0.000000 7.125000 0.000000 0.000000 6.356721 25.641009 2.996582
-1.537244 15.136610 39.217384 -175.724065 1.460206 -158.017209 0.000000 0.000000 0.000000 -5.171610 -11.883542 -78.946488 13.703754 19.021642 71.297632 -0.152292 -10.284113 -4.377949 0.139834 -2.204772 -6.086305 0.000000 0.000000 0.000000 25.117776 -1.317342 11.931270 -2.215213 -9.286734 26.706136 -2.590450 -11.692414 29.014928 -2.365622 9.589347 -27.656930 5.644252 0.809384 15.542640 1.395763 2.423128 -2.289679 -2.273824 0.875507 -11.121059 -2.194818 -2.423276 -18.915895 1.352508 -3.143546 3.374422 0.487134 -1.633388 4.056622 0.000000 0.000000 0.000000 30.785841 54.451982 -56.700747 118.950823 -56.582543 84.784415 20.608308 -15.032126 13.321286 0.000000 0.000000 0.000000 -7.125000 0.000000 0.000000 -4.633766 15.814567 -3.206500 0.000000 0.000000 0.000000 -19.031256 11.649804 47.998808 -129.549434 -53.171932 -93.464629 -17.994417 -4.722137 -3.741463 0.000000 0.000000 0.000000 7.125000 0.000000 0.000000 6.534332 26.038114 3.021123
-1.524193 15.167264 38.871203 -175.743003 0.925905 -158.221843 0.000000 0.000000 0.000000 -6.015621 -11.748847 -77.197946 13.790189 19.049017 71.562593 0.009177 -10.831245 -7.460436 0.220033 -2.931302 -8.093498 0.000000 0.000000 0.000000 25.305903 -1.627985 9.731811 -2.934778 -10.533916 30.778011 -2.198368 -9.726626 26.597247 -3.194892 10.931277 -32.127278 5.735858 0.653257 15.665824 1.351302 2.232734 -2.199677 -2.330408 0.779904 -11.101978 -2.201447 -2.471463 -18.990757 1.575932 -3.228454 3.329203 0.549602 -1.663414 4.059518 0.000000 0.000000 0.000000 29.140513 53.062990 -55.407159 117.539940 -56.924379 83.603260 21.529290 -15.795784 13.030687 0.000000 0.000000 0.000000 -7.125000 0.000000 0.000000 -3.987137 16.031366 -2.739624 0.000000 0.000000 0.000000 -17.999995 12.822090 47.305431 -126.727710 -54.200471 -91.182921 -17.740101 -3.954961 -3.320380 0.000000 0.000000 0.000000 7.125000 0.000000 0.000000 6.746472 26.481669 3.048814
-1.509543 15.208086 38.524793 -175.891182 0.381620 -158.451010 0.000000 0.000000 0.000000 -6.906064 -11.711451 -75.307109 13.817104 19.057561 71.645124 0.144012 -11.735617 -10.093470 0.217429 -2.707167 -7.479910 0.000000 0.000000 0.000000 25.431014 -1.880509 7.400285 -3.721403 -11.736261 34.863474 -1.866356 -8.903655 24.484246 -3.509279 11.461413 -33.871084 5.712136 0.469482 15.847396 1.291895 1.983525 -2.101499 -2.324592 0.661693 -11.114843 -2.216860 -2.495458 -19.038423 1.773252 -3.279675 3.235653 0.608902 -1.680096 4.042330 0.000000 0.000000 0.000000 27.425134 51.430914 -54.073346 115.751383 -57.326987 82.099777 22.010278 -16.397889 12.793679 0.000000 0.000000 0.000000 -7.125000 0.000000 0.000000 -3.645797 16.235470 -2.485983 0.000000 0.000000 0.000000 -16.889907 13.973494 46.529501 -123.287034 -55.315465 -88.366912 -17.807869 -3.559307 -2.864193 0.000000 0.000000 0.000000 7.125000 0.000000 0.000000 6.715838 26.957593 2.962728
